<svg width="82" height="57" viewBox="0 0 82 57" fill="none" xmlns="http://www.w3.org/2000/svg">
<g clip-path="url(#clip0_70_292)">
<path d="M40.9559 0.165562C51.7293 0.165562 62.5035 0.165562 73.2785 0.165562C78.4542 0.165562 81.872 3.57084 81.8745 8.7541C81.8745 21.9383 81.8745 35.1233 81.8745 48.3091C81.8745 53.4346 78.4441 56.8801 73.3362 56.8826C51.7242 56.8926 30.1131 56.8926 8.5028 56.8826C3.45264 56.8826 0.00718525 53.4246 0.00216271 48.3719C-0.00788236 35.1258 -0.00788236 21.878 0.00216271 8.62854C0.00216271 3.5834 3.47022 0.168074 8.54048 0.165562C19.3473 0.163888 30.1525 0.163888 40.9559 0.165562ZM28.1886 26.8377L5.32103 52.8947C6.35818 53.6707 7.42798 53.7761 8.54048 53.7761C20.4707 53.7761 32.4025 53.7761 44.3361 53.7761C54.0145 53.7761 63.6921 53.7761 73.3689 53.7761C74.5215 53.7761 75.6114 53.6204 76.6335 52.8595L53.7659 26.8026C53.4595 27.0537 53.221 27.2571 52.9874 27.4631L42.42 36.7849C41.187 37.8723 40.6847 37.8647 39.4416 36.7673L28.1886 26.8377ZM6.48123 3.56582C18.018 13.749 29.4619 23.8443 40.9459 33.9873L75.3804 3.60098C74.0946 3.12384 7.98799 3.09621 6.48123 3.56582ZM3.29946 50.5265L25.8732 24.8011L3.98503 5.4794C3.27936 6.37844 3.11111 7.3729 3.11111 8.42513C3.11111 21.8186 3.11111 35.2195 3.11111 48.628C3.12367 49.1705 3.21658 49.7104 3.30447 50.5215L3.29946 50.5265ZM77.8841 5.48443L56.0562 24.7559L78.4065 50.2101L78.6576 50.1273C78.6978 49.4844 78.7681 48.8415 78.7681 48.1986C78.7681 38.0564 78.7681 27.9142 78.7681 17.7721C78.7681 14.6732 78.7681 11.5759 78.7681 8.48037C78.7681 7.42062 78.6099 6.42364 77.8967 5.4794L77.8841 5.48443Z" fill="#636363"/>
</g>
<defs>
<clipPath id="clip0_70_292">
<rect width="81.8824" height="56.7271" fill="white" transform="translate(0 0.163086)"/>
</clipPath>
</defs>
</svg>
