<svg width="26" height="26" viewBox="0 0 26 26" fill="none" xmlns="http://www.w3.org/2000/svg">
<g clip-path="url(#clip0_192_137)">
<path d="M22.7634 10.8909V11.2535C22.7634 12.7607 22.7634 14.2684 22.7634 15.7767C22.7634 16.9886 22.0503 17.6984 20.8384 17.6984C17.2465 17.6984 13.6549 17.6984 10.0635 17.6984C8.84674 17.6984 8.14345 16.991 8.14264 15.7759C8.14264 14.2687 8.14264 12.761 8.14264 11.2527V10.8909C7.63484 10.8909 7.15218 10.8812 6.67034 10.8909C6.25501 10.9015 5.93135 10.7693 5.77236 10.3645C5.61337 9.95969 5.72288 9.62711 6.02707 9.31967C8.95165 6.36535 11.873 3.40724 14.7911 0.445341C15.3751 -0.14601 16.0687 -0.150066 16.6568 0.445341C19.5954 3.40183 22.533 6.35967 25.4695 9.31886C25.7745 9.62467 25.8661 9.9678 25.7128 10.3685C25.5676 10.7425 25.3072 10.8926 24.8149 10.8926L22.7634 10.8909ZM15.7726 3.92937C15.698 3.98777 15.6647 4.01049 15.6371 4.03725C13.5118 6.16255 11.3882 8.28974 9.26612 10.4188C9.18396 10.5155 9.13883 10.6383 9.13877 10.7652C9.13066 12.4454 9.12903 14.1254 9.1339 15.8051C9.1339 16.4345 9.41214 16.7063 10.0489 16.7079C11.071 16.7112 12.0931 16.7112 13.1152 16.7079C13.2117 16.7079 13.3074 16.6974 13.4186 16.6901C13.4186 15.3297 13.4186 14.0042 13.4186 12.6796C13.4186 11.8895 13.9166 11.3931 14.7075 11.3874C15.3354 11.3874 15.9624 11.3874 16.5903 11.3874C17.4899 11.3874 17.9693 11.8741 17.9693 12.7818C17.9693 13.9759 17.9693 15.1702 17.9693 16.3648C17.9693 16.4719 17.979 16.5781 17.9847 16.7095H20.8019C21.506 16.7095 21.7583 16.4589 21.7591 15.7637C21.7591 14.0537 21.7591 12.3435 21.7591 10.633C21.7591 10.5121 21.7413 10.3734 21.7932 10.2752C21.8938 10.0822 21.7932 9.98727 21.6748 9.86965C19.928 8.12237 18.1818 6.37454 16.4362 4.62617C16.2171 4.40148 16.0046 4.17353 15.771 3.92775L15.7726 3.92937ZM6.86421 9.89074C7.32253 9.89074 7.68594 9.87857 8.04854 9.89074C8.15269 9.8983 8.25718 9.88183 8.35394 9.84259C8.45071 9.80334 8.53717 9.74239 8.60663 9.66442C10.7054 7.55535 12.8083 5.45114 14.9152 3.35181C15.0394 3.21955 15.184 3.10808 15.3435 3.02166C15.7604 2.81886 16.1506 2.93161 16.5659 3.34613C18.6631 5.44222 20.7595 7.53859 22.855 9.63522C22.9362 9.71634 23.0327 9.85667 23.1276 9.86154C23.6013 9.88425 24.0767 9.87209 24.6056 9.87209C24.5245 9.7788 24.492 9.73986 24.4571 9.70498C21.6353 6.86098 18.8137 4.01616 15.9924 1.17054C15.788 0.964498 15.6534 0.970176 15.4473 1.17946C13.236 3.43238 11.0188 5.6799 8.79564 7.922C8.17589 8.55797 7.55534 9.18745 6.86421 9.89074ZM16.935 16.6909C16.9481 16.6526 16.9576 16.6133 16.9634 16.5733C16.9634 15.2802 16.9634 13.9872 16.9691 12.6934C16.9691 12.45 16.8491 12.3778 16.6292 12.3794C16.033 12.3843 15.4368 12.3794 14.8446 12.3794C14.4447 12.3794 14.4058 12.4184 14.4058 12.8078C14.4058 14.0099 14.4058 15.2124 14.4058 16.4151C14.4058 16.5019 14.4179 16.5887 14.4252 16.6893L16.935 16.6909Z" fill="black"/>
<path d="M7.03376 23.6694C7.52696 24.1562 7.97878 24.6047 8.42656 25.0541C8.51125 25.1289 8.56681 25.2312 8.58343 25.343C8.60005 25.4547 8.57667 25.5688 8.51741 25.665C8.46949 25.7618 8.38821 25.8382 8.2885 25.8799C8.18879 25.9216 8.07737 25.926 7.97473 25.8921C7.86898 25.8595 7.77324 25.8006 7.69649 25.7209C7.10595 25.1385 6.5146 24.5561 5.93704 23.9607C5.47061 23.4796 5.46899 22.8112 5.93704 22.3261C6.51379 21.7291 7.10595 21.1475 7.69649 20.5651C7.94634 20.3217 8.23755 20.3095 8.44602 20.5237C8.6545 20.7378 8.63016 21.0266 8.38356 21.2765C7.95769 21.708 7.52452 22.1323 7.04268 22.6109H24.5237C24.4539 22.5297 24.4012 22.4624 24.3411 22.4024C23.9988 22.0576 23.6549 21.7153 23.3117 21.3714C22.9686 21.0274 22.9256 20.7459 23.169 20.5123C23.4123 20.2787 23.6792 20.3331 24.0061 20.6592L25.5311 22.1834C25.5595 22.2118 25.5887 22.2401 25.6163 22.2693C26.1257 22.7942 26.1355 23.4861 25.6285 24.002C25.0696 24.5699 24.5009 25.1377 23.9339 25.699C23.6719 25.9586 23.371 25.9797 23.1601 25.7655C22.9491 25.5514 22.9735 25.2594 23.2412 24.9933C23.6687 24.5642 24.1002 24.1391 24.5748 23.6694H7.03376Z" fill="black"/>
<path d="M2.27047 16.0947V1.63047C2.16664 1.72457 2.09363 1.78622 2.02712 1.85355C1.63937 2.23886 1.25893 2.63066 0.864691 3.00948C0.638372 3.22607 0.359329 3.22039 0.158967 3.02084C-0.0276047 2.83589 -0.0624859 2.5609 0.128142 2.3654C0.769787 1.7051 1.41143 1.04318 2.08552 0.418568C2.46597 0.0657043 3.19116 0.124921 3.59188 0.509422C4.19784 1.09104 4.78676 1.6905 5.37648 2.28915C5.6028 2.51872 5.60686 2.82291 5.40975 3.01922C5.21263 3.21552 4.92304 3.22364 4.67968 2.9892C4.29518 2.61606 3.92042 2.23156 3.54403 1.85355C3.47508 1.78541 3.40207 1.72133 3.30067 1.62561V16.0825C3.38179 16.0135 3.4475 15.9632 3.50671 15.9048C3.90176 15.5122 4.29032 15.1139 4.69023 14.727C4.92872 14.4966 5.21506 14.4974 5.42029 14.7092C5.4657 14.7572 5.50113 14.8137 5.52452 14.8755C5.5479 14.9373 5.55877 15.0031 5.55651 15.0691C5.55425 15.1352 5.53889 15.2001 5.51133 15.2601C5.48377 15.3202 5.44455 15.3742 5.39596 15.4189C4.78676 16.0338 4.18729 16.6503 3.56187 17.2417C3.10193 17.6781 2.42622 17.657 1.97196 17.2141C1.37817 16.6349 0.794118 16.0452 0.210067 15.4554C-0.0438329 15.1999 -0.0584336 14.9225 0.154907 14.7067C0.368248 14.491 0.648921 14.5007 0.904443 14.7513C1.28083 15.1188 1.64992 15.4944 2.02225 15.8659C2.0912 15.934 2.16421 16.0014 2.27047 16.0947Z" fill="black"/>
</g>
<defs>
<clipPath id="clip0_192_137">
<rect width="26" height="25.9116" fill="white"/>
</clipPath>
</defs>
</svg>
