<svg width="41" height="60" viewBox="0 0 41 60" fill="none" xmlns="http://www.w3.org/2000/svg">
<g clip-path="url(#clip0_70_308)">
<path d="M22.0008 0.773682C23.0973 0.962257 24.2089 1.09304 25.2902 1.34701C33.4583 3.26471 39.6782 10.1675 40.8142 18.4663C41.3541 22.4203 40.6698 26.2055 39.3604 29.9132C37.7088 34.5911 35.3014 38.8857 32.5473 42.9918C29.2655 47.8659 25.8559 52.6548 22.5102 57.4802C22.3262 57.7448 22.1544 58.0186 21.9628 58.2771C21.1887 59.3325 19.8519 59.3416 19.0915 58.2771C18.3661 57.2582 17.6681 56.2195 16.9625 55.1884C13.8418 50.6641 10.6513 46.1854 7.62189 41.6003C5.00616 37.6463 2.81017 33.4429 1.3411 28.9004C-0.127961 24.3578 -0.567466 19.7833 0.977638 15.2134C3.64203 7.32973 9.14874 2.62142 17.3183 1.03373C17.8901 0.922718 18.4726 0.86645 19.0505 0.784328L22.0008 0.773682ZM20.5074 54.2851C20.6062 54.171 20.6595 54.1193 20.702 54.06C23.5778 49.9402 26.5038 45.8478 29.3157 41.6916C32.0151 37.698 34.424 33.5311 36.074 28.9733C37.2359 25.766 37.9233 22.4797 37.4503 19.0473C36.1303 9.45729 27.3889 2.94078 17.8323 4.4068C8.41117 5.85306 1.93573 15.0598 3.72263 24.4247C4.34615 27.6944 5.53691 30.7527 7.0227 33.7014C9.41336 38.4599 12.4078 42.8413 15.4691 47.18C17.1282 49.5403 18.8026 51.8838 20.5074 54.2851Z" fill="#636363"/>
<path d="M20.4742 31.5084C17.7587 31.4911 15.1607 30.3984 13.2493 28.4695C11.3378 26.5407 10.2686 23.9329 10.2759 21.2174C10.2932 18.5019 11.3859 15.9039 13.3148 13.9924C15.2437 12.0809 17.8514 11.0118 20.567 11.0191C23.283 11.0352 25.8818 12.1275 27.7938 14.0566C29.7058 15.9856 30.7749 18.5941 30.7668 21.3101C30.7499 24.026 29.6571 26.6245 27.7278 28.5361C25.7985 30.4477 23.1901 31.5165 20.4742 31.5084ZM13.6916 21.263C13.6984 23.0748 14.422 24.8102 15.7043 26.0902C16.9865 27.3702 18.7233 28.0907 20.535 28.0943C22.3372 28.084 24.0629 27.3644 25.3385 26.0913C26.6141 24.8182 27.3372 23.0941 27.3511 21.2919C27.354 19.4791 26.6382 17.739 25.3606 16.4529C24.0831 15.1668 22.3478 14.4394 20.535 14.4302C18.7226 14.4326 16.985 15.1529 15.7024 16.4335C14.4198 17.714 13.6968 19.4506 13.6916 21.263Z" fill="#636363"/>
</g>
<defs>
<clipPath id="clip0_70_308">
<rect width="41" height="58.2897" fill="white" transform="translate(0 0.773682)"/>
</clipPath>
</defs>
</svg>
