<svg width="60" height="60" viewBox="0 0 60 60" fill="none" xmlns="http://www.w3.org/2000/svg">
<g clip-path="url(#clip0_70_302)">
<path d="M0 16.5243C0.087237 15.8311 0.134824 15.1301 0.271231 14.4465C0.58713 12.7657 1.39344 11.216 2.58856 9.99261C4.19848 8.34462 5.7513 6.63002 7.48652 5.12003C10.1274 2.82332 12.992 2.83442 15.5329 5.2152C18.2373 7.753 20.8306 10.4113 23.3573 13.1236C25.2369 15.1396 25.2194 18.2278 23.3985 20.3008C22.0488 21.8378 20.5594 23.2542 19.116 24.7023C18.8416 24.9767 18.7718 25.156 18.9574 25.5335C20.4087 28.4742 22.4611 30.9723 24.6801 33.3467C26.9274 35.791 29.4743 37.9419 32.2602 39.7483C33.0628 40.2591 33.9193 40.6826 34.8139 41.1759C35.7798 40.1972 36.7172 39.2313 37.6689 38.2875C38.3034 37.6531 38.9505 37.0266 39.6389 36.4524C41.6771 34.7584 44.7684 34.7314 46.6797 36.5555C49.4745 39.2218 52.2121 41.9562 54.861 44.7668C55.8047 45.7582 56.339 47.0696 56.3567 48.4383C56.3743 49.807 55.874 51.1317 54.9561 52.1471C53.2052 54.1414 51.3473 56.0391 49.3904 57.8318C47.3411 59.6875 44.7795 60.1697 42.0657 59.9397C36.9901 59.5099 32.4728 57.4495 28.1078 55.0227C22.7695 52.0634 17.9346 48.2757 13.7834 43.8009C8.67295 38.3113 4.4475 32.238 1.79232 25.1671C0.894574 22.7784 0.185581 20.3262 0.0840694 17.7329C0.0674824 17.5991 0.0393514 17.4669 0 17.338V16.5243ZM3.44983 17.016C3.51168 17.6948 3.56562 18.3753 3.64334 19.0542C3.68548 19.3632 3.74425 19.6698 3.8194 19.9725C4.74728 24.1107 6.47933 27.919 8.68881 31.5052C14.5686 41.049 22.3929 48.5117 32.4982 53.4842C35.6086 55.0148 38.8173 56.2536 42.3195 56.5581C44.4528 56.7437 46.3419 56.2583 47.8709 54.6738C49.1874 53.3129 50.5261 51.9774 51.8362 50.6133C53.2637 49.1414 53.2637 47.9169 51.8362 46.4497C50.8687 45.4584 49.8789 44.4861 48.8971 43.5075C47.5299 42.1402 46.1753 40.7619 44.7891 39.4137C43.7343 38.3859 42.5685 38.3763 41.4582 39.336C41.2663 39.4946 41.0854 39.6817 40.9062 39.861C39.5659 41.1981 38.232 42.5447 36.8838 43.8739C35.9416 44.8017 34.8995 45.0301 33.7829 44.4766C32.6245 43.9154 31.4962 43.2939 30.4029 42.6145C26.7548 40.3082 23.6238 37.4183 20.8036 34.1763C18.8384 31.9176 17.0461 29.5369 15.7835 26.7976C14.789 24.6437 14.9302 23.9711 16.6401 22.3184C17.9867 21.0162 19.3365 19.706 20.6133 18.3436C21.5904 17.3062 21.565 16.234 20.6545 15.138C20.5444 15.0006 20.4268 14.8693 20.3024 14.7446C17.9867 12.4183 15.6678 10.0984 13.3457 7.78472C13.097 7.53697 12.8126 7.32792 12.5019 7.16455C11.5042 6.64747 10.5128 6.88063 9.48821 7.87989C8.17807 9.16624 6.91234 10.497 5.58476 11.7643C4.86261 12.4273 4.29655 13.2422 3.92737 14.1503C3.55819 15.0585 3.39509 16.0372 3.44983 17.016Z" fill="#636363"/>
<path d="M33.6336 0C34.9882 0.350534 36.357 0.653485 37.6925 1.06271C41.9973 2.38104 45.9672 4.61214 49.3315 7.60389C52.933 10.7443 55.7928 14.6448 57.7047 19.024C58.7422 21.4019 59.4842 23.8981 59.9142 26.4566C60.0011 26.8732 59.9205 27.3073 59.6899 27.665C59.4593 28.0226 59.0971 28.2751 58.6817 28.3679C58.4751 28.4278 58.2587 28.4464 58.0449 28.4226C57.8311 28.3989 57.624 28.3332 57.4356 28.2293C57.2472 28.1255 57.0811 27.9855 56.9468 27.8174C56.8126 27.6493 56.7128 27.4564 56.6531 27.2497C56.2946 25.9966 56.063 24.7119 55.6871 23.4572C53.9947 17.8408 50.813 13.2108 46.2877 9.49931C42.5699 6.42864 38.1278 4.36079 33.3846 3.49265C32.0697 3.24522 31.4813 2.63614 31.5209 1.6353C31.5511 0.775617 32.0998 0.321984 32.8136 0H33.6336Z" fill="#636363"/>
<path d="M31.0357 12.5828C31.034 12.3273 31.0903 12.0747 31.2004 11.844C31.3104 11.6134 31.4714 11.4107 31.6711 11.2513C31.8709 11.0919 32.1042 10.9799 32.3535 10.9237C32.6028 10.8675 32.8616 10.8686 33.1104 10.9269C40.1496 12.3544 45.1189 16.3657 47.92 22.9815C48.4324 24.1917 48.7131 25.5066 49.0303 26.7882C49.0944 27.0097 49.1127 27.2419 49.084 27.4707C49.0553 27.6995 48.9802 27.92 48.8634 28.1188C48.7466 28.3176 48.5904 28.4905 48.4045 28.6268C48.2185 28.7632 48.0068 28.8603 47.782 28.912C46.8938 29.1309 46.0151 28.5821 45.7201 27.6225C45.3283 26.3393 45.0777 24.9911 44.5273 23.7809C42.1751 18.6148 38.1717 15.4632 32.6076 14.3038C31.5734 14.0849 31.0278 13.4901 31.0357 12.5828Z" fill="#636363"/>
</g>
<defs>
<clipPath id="clip0_70_302">
<rect width="59.9429" height="60" fill="white"/>
</clipPath>
</defs>
</svg>
